<svg width="297" height="89" viewBox="0 0 297 89" fill="none" xmlns="http://www.w3.org/2000/svg">
<path d="M27.5 87C22 87.3333 16 87.25 9.5 86.75C3.16667 86.25 0 82.1667 0 74.5V1H9C11.1667 1 13.0833 1.83333 14.75 3.5C16.4167 5.16667 17.25 7.16667 17.25 9.5V20.75H27.5V24.25C27.5 26.75 26.6667 28.8333 25 30.5C23.3333 32 21.3333 32.75 19 32.75H17.25V69.75C17.25 72.5833 18.9167 74 22.25 74H27.5V87ZM73 0.75H81.5C83.8333 0.75 85.8333 1.66667 87.5 3.5C89.1667 5.16667 90 7.08333 90 9.25V58C90 69.8333 86.5833 77.8333 79.75 82C72.9167 86.1667 65.5 88.25 57.5 88.25C53.1667 88.25 48.9167 87.5833 44.75 86.25C40.5833 84.75 37.25 82.4167 34.75 79.25C29.9167 73.0833 27.5 64.6667 27.5 54C27.5 43.5 29.9167 35.0833 34.75 28.75C39.75 22.25 46.1667 19 54 19C58.1667 19 61.8333 19.8333 65 21.5C68.3333 23.5 71 26.0833 73 29.25V0.75ZM44.5 53.25C44.5 59.9167 45.75 65 48.25 68.5C50.75 72 54.3333 73.75 59 73.75C63.5 73.75 67 72 69.5 68.5C71.8333 65 73 59.9167 73 53.25C73 47.25 71.75 42.5 69.25 39C66.5833 35.6667 63 34 58.5 34C54.1667 34 50.75 35.75 48.25 39.25C45.75 42.5833 44.5 47.25 44.5 53.25ZM139.25 66.5H151.75C149.917 73.5 146.417 78.8333 141.25 82.5C136.083 86.3333 129.583 88.25 121.75 88.25C112.25 88.25 104.833 85.1667 99.5 79C94.1667 73 91.5 64.4167 91.5 53.25C91.5 42.5833 94.0833 34.25 99.25 28.25C104.583 22.0833 112 19 121.5 19C131.5 19 139.25 22 144.75 28C150.083 34.1667 152.75 42.75 152.75 53.75C152.75 54.4167 152.75 55 152.75 55.5C152.75 56 152.75 56.3333 152.75 56.5C152.75 57.3333 152.667 57.9167 152.5 58.25H109.25C109.417 63.4167 110.667 67.25 113 69.75C115.167 72.4167 118.417 73.75 122.75 73.75C125.583 73.75 128 73.1667 130 72C130.5 71.8333 130.917 71.5833 131.25 71.25C131.75 70.75 132.25 70.25 132.75 69.75C132.917 69.25 133.5 68.5833 134.5 67.75C135.667 66.9167 137.25 66.5 139.25 66.5ZM109.25 47H134.75C134.417 42.5 133.25 39.1667 131.25 37C129.083 34.6667 126 33.5 122 33.5C118.333 33.5 115.333 34.6667 113 37C110.667 39.3333 109.417 42.6667 109.25 47ZM196.5 87H178.75L155.5 20.5H174L187.25 67.25L199 26.5C200.333 22.5 203 20.5 207 20.5H220L196.5 87ZM221.5 65H238.5C238.667 68.3333 239.917 70.8333 242.25 72.5C244.75 74.1667 248.083 75 252.25 75C255.25 75 257.833 74.4167 260 73.25C262 72.0833 263 70.5 263 68.5C263 65.5 259.5 63.25 252.5 61.75C249.5 61.25 247.25 60.75 245.75 60.25C236.917 58.0833 231 55.5 228 52.5C224.667 49.5 223 45.5 223 40.5C223 34.1667 225.417 28.9167 230.25 24.75C235.25 20.9167 241.75 19 249.75 19C258.417 19 265.333 20.9167 270.5 24.75C275.333 28.9167 277.917 34.3333 278.25 41H267.5C264.333 41 261.917 39.5833 260.25 36.75C259.583 36.0833 258.917 35.4167 258.25 34.75C256.25 33.25 253.5 32.5 250 32.5C246.667 32.5 244.167 33 242.5 34C241 35 240.25 36.5 240.25 38.5C240.25 41.1667 244.583 43.4167 253.25 45.25C254.25 45.5833 255.083 45.8333 255.75 46C256.583 46.1667 257.333 46.25 258 46.25C266.5 48.4167 272.417 50.9167 275.75 53.75C278.917 56.75 280.5 60.75 280.5 65.75C280.5 73.0833 277.833 78.75 272.5 82.75C267.5 86.4167 260 88.25 250 88.25C240.5 88.25 233.417 86.3333 228.75 82.5C223.917 78.6667 221.5 73.0833 221.5 65.75V65Z" fill="#4A5CFF"/>
<path d="M288.5 73.25H297V87H283.25V78.5C283.25 75 285 73.25 288.5 73.25Z" fill="#F5B100"/>
</svg>
